<svg width="322" height="41" viewBox="0 0 322 41" fill="none" xmlns="http://www.w3.org/2000/svg">
<path d="M36.5862 31.9917H30.1504L34.1758 7.10156H40.6113L36.5862 31.9917Z" fill="#151515"/>
<path d="M59.917 7.70811C58.6476 7.20449 56.6342 6.64844 54.1446 6.64844C47.789 6.64844 43.3135 10.0376 43.286 14.883C43.2332 18.4579 46.4904 20.4435 48.9265 21.6355C51.4164 22.8536 52.2628 23.6486 52.2628 24.7343C52.2375 26.4018 50.2508 27.1704 48.3979 27.1704C45.8284 27.1704 44.4516 26.7741 42.3594 25.8464L41.5119 25.4487L40.6113 31.036C42.1208 31.7237 44.9017 32.334 47.789 32.3607C54.5419 32.3607 58.9383 29.024 58.9904 23.8605C59.016 21.027 57.2961 18.856 53.5882 17.0819C51.3372 15.943 49.9587 15.1751 49.9587 14.0098C49.9851 12.9505 51.1246 11.8655 53.6656 11.8655C55.7578 11.8124 57.2951 12.3153 58.4596 12.8185L59.0417 13.0828L59.917 7.70811Z" fill="#151515"/>
<path fill-rule="evenodd" clip-rule="evenodd" d="M71.437 7.10156H76.4151L81.6072 31.9914H75.6483C75.6483 31.9914 75.0651 29.1315 74.8803 28.2577H66.6173C66.3783 28.9193 65.2666 31.9914 65.2666 31.9914H58.5137L68.0732 9.16671C68.7356 7.55133 69.9019 7.10156 71.437 7.10156ZM71.0404 16.21C71.0404 16.21 69.0009 21.7441 68.4709 23.174H73.8203C73.5557 21.9296 72.3369 15.9717 72.3369 15.9717L71.8871 13.827C71.6977 14.3793 71.4238 15.1386 71.2391 15.6507C71.1138 15.9979 71.0296 16.2314 71.0404 16.21Z" fill="#151515"/>
<path d="M24.7752 7.10156L18.4724 24.0743L17.7837 20.632C16.6184 16.6601 12.9639 12.3447 8.88574 10.1989L14.6589 31.9653H21.4646L31.5805 7.10156H24.7752V7.10156Z" fill="#151515"/>
<path d="M12.6197 7.10156H2.26511L2.15918 7.60448C10.2364 9.66997 15.5858 14.6488 17.7836 20.6331L15.5327 9.19381C15.1621 7.60412 14.0232 7.154 12.6197 7.10156Z" fill="#151515"/>
<path opacity="0.01" fill-rule="evenodd" clip-rule="evenodd" d="M0 0.328125H86V40.3281H0V0.328125Z" fill="white"/>
<circle cx="155" cy="19.3281" r="17" fill="#393939"/>
<circle cx="133" cy="19.3281" r="17" fill="#151515"/>
<path fill-rule="evenodd" clip-rule="evenodd" d="M144 32.252C147.671 29.1337 150 24.4839 150 19.2901C150 14.0962 147.671 9.4464 144 6.32812C140.329 9.4464 138 14.0962 138 19.2901C138 24.4839 140.329 29.1337 144 32.252Z" fill="#636363"/>
<rect opacity="0.01" x="114" y="0.328125" width="60" height="40" fill="white"/>
<path fill-rule="evenodd" clip-rule="evenodd" d="M247.739 12.4219H241.562C241.139 12.4216 240.779 12.7289 240.713 13.1463L238.215 28.9861C238.192 29.1349 238.235 29.2864 238.333 29.4007C238.431 29.515 238.574 29.5807 238.725 29.5805H241.674C242.096 29.5807 242.456 29.2729 242.522 28.8552L243.196 24.5829C243.261 24.1656 243.62 23.8579 244.043 23.8576H245.998C250.067 23.8576 252.416 21.8886 253.029 17.9866C253.305 16.2796 253.041 14.9383 252.241 13.9989C251.363 12.9674 249.806 12.4219 247.739 12.4219ZM248.451 18.207C248.114 20.4236 246.42 20.4236 244.783 20.4236H243.85L244.504 16.2841C244.544 16.0339 244.76 15.8496 245.013 15.8496H245.44C246.556 15.8496 247.608 15.8496 248.152 16.4855C248.476 16.8648 248.575 17.4285 248.451 18.207ZM263.245 18.1357H266.203C266.354 18.1356 266.496 18.2015 266.594 18.3159C266.691 18.4302 266.734 18.5816 266.71 18.73L265.111 28.8543C265.046 29.272 264.686 29.5798 264.263 29.5796H261.599C261.448 29.5793 261.305 29.5132 261.208 29.3985C261.11 29.2838 261.067 29.1321 261.091 28.9834L261.223 28.1615C261.223 28.1615 259.763 29.855 257.129 29.855C255.594 29.855 254.304 29.4125 253.403 28.3503C252.42 27.195 252.018 25.5385 252.301 23.8061C252.845 20.3332 255.637 17.8575 258.905 17.8575C260.331 17.8575 261.759 18.1682 262.399 19.0976L262.606 19.3975L262.737 18.5701C262.776 18.3199 262.992 18.1357 263.245 18.1357ZM262.08 23.8928C261.795 25.5828 260.453 26.7172 258.743 26.7172C257.884 26.7172 257.197 26.4417 256.757 25.9197C256.319 25.4012 256.153 24.6633 256.292 23.8414C256.559 22.1659 257.923 20.9944 259.607 20.9944C260.447 20.9944 261.13 21.2735 261.58 21.8001C262.031 22.3321 262.209 23.0745 262.08 23.8928ZM278.985 18.1357H281.957C282.149 18.1358 282.325 18.2422 282.413 18.412C282.502 18.5817 282.489 18.7867 282.38 18.9441L272.493 33.215C272.333 33.4462 272.069 33.5839 271.788 33.5836H268.819C268.627 33.5836 268.45 33.4762 268.362 33.305C268.273 33.1339 268.288 32.9277 268.399 32.7706L271.477 28.4252L268.203 18.8167C268.149 18.6593 268.175 18.4856 268.272 18.3504C268.369 18.2152 268.525 18.1352 268.692 18.1357H271.613C271.992 18.1359 272.327 18.3846 272.437 18.7481L274.174 24.5513L278.274 18.5123C278.434 18.2771 278.7 18.1361 278.985 18.1357Z" fill="#151515"/>
<path fill-rule="evenodd" clip-rule="evenodd" d="M311.215 28.987L313.751 12.8572C313.79 12.6072 314.005 12.4228 314.258 12.4219H317.112C317.263 12.4221 317.406 12.4882 317.503 12.6026C317.601 12.7171 317.643 12.8685 317.62 13.0171L315.12 28.8561C315.055 29.2743 314.695 29.5814 314.272 29.5814H311.723C311.572 29.5814 311.43 29.5155 311.332 29.4012C311.234 29.2869 311.192 29.1355 311.215 28.987ZM291.799 12.4228H285.621C285.199 12.423 284.84 12.7302 284.774 13.1472L282.276 28.987C282.252 29.1355 282.295 29.2869 282.393 29.4012C282.49 29.5155 282.633 29.5814 282.783 29.5814H285.954C286.249 29.5809 286.501 29.3657 286.546 29.0737L287.255 24.5838C287.321 24.1665 287.68 23.8588 288.103 23.8585H290.057C294.127 23.8585 296.475 21.8895 297.089 17.9876C297.366 16.2805 297.1 14.9392 296.3 13.9998C295.423 12.9683 293.867 12.4228 291.799 12.4228ZM292.512 18.2079C292.175 20.4245 290.482 20.4245 288.843 20.4245H287.912L288.567 16.285C288.606 16.0347 288.821 15.8502 289.074 15.8505H289.502C290.616 15.8505 291.669 15.8505 292.213 16.4864C292.537 16.8657 292.636 17.4294 292.512 18.2079ZM307.307 18.1366H310.263C310.414 18.1364 310.557 18.2021 310.655 18.3163C310.753 18.4306 310.796 18.5821 310.774 18.7309L309.174 28.8552C309.109 29.2725 308.749 29.5802 308.327 29.5805H305.663C305.512 29.5808 305.369 29.5148 305.271 29.4001C305.173 29.2853 305.13 29.1334 305.154 28.9843L305.286 28.1624C305.286 28.1624 303.825 29.8559 301.191 29.8559C299.657 29.8559 298.369 29.4134 297.465 28.3512C296.483 27.1959 296.083 25.5394 296.364 23.807C296.908 20.3341 299.699 17.8584 302.968 17.8584C304.393 17.8584 305.82 18.1691 306.461 19.0985L306.668 19.3984L306.799 18.571C306.838 18.3206 307.054 18.1359 307.307 18.1366ZM306.14 23.8937C305.856 25.5837 304.513 26.7181 302.803 26.7181C301.945 26.7181 301.257 26.4426 300.816 25.9206C300.379 25.4021 300.215 24.6642 300.352 23.8423C300.62 22.1668 301.982 20.9953 303.667 20.9953C304.507 20.9953 305.19 21.2744 305.64 21.801C306.092 22.333 306.271 23.0754 306.14 23.8937Z" fill="#151515"/>
<path d="M212.563 32.6577L213.035 29.6572L211.983 29.6328H206.958L210.45 7.49207C210.471 7.35225 210.592 7.24926 210.733 7.25H219.206C222.018 7.25 223.959 7.83529 224.973 8.99052C225.448 9.53246 225.751 10.0988 225.897 10.722C226.05 11.3759 226.053 12.1572 225.903 13.1101L225.892 13.1797V13.7903L226.367 14.0594C226.73 14.2432 227.056 14.4917 227.329 14.7928C227.736 15.2562 227.999 15.8451 228.11 16.5433C228.224 17.2614 228.187 18.1158 227.999 19.0832C227.782 20.1959 227.431 21.1651 226.958 21.9581C226.541 22.6686 225.979 23.2839 225.31 23.7646C224.681 24.2108 223.934 24.5495 223.09 24.7663C222.271 24.9794 221.338 25.0869 220.315 25.0869H219.656C219.184 25.0869 218.726 25.2567 218.367 25.5611C218.008 25.8687 217.77 26.2938 217.695 26.7606L217.645 27.0306L216.81 32.319L216.772 32.5132C216.763 32.5746 216.745 32.6054 216.72 32.6261C216.696 32.6462 216.665 32.6573 216.633 32.6577H212.563Z" fill="#253B80"/>
<path d="M226.818 13.25C226.793 13.4117 226.764 13.577 226.731 13.7468C225.614 19.4832 221.791 21.4648 216.91 21.4648H214.424C213.827 21.4648 213.324 21.8984 213.231 22.4873L211.958 30.5585L211.598 32.8464C211.569 33.03 211.621 33.2172 211.742 33.3586C211.863 33.5 212.039 33.5815 212.225 33.5816H216.634C217.156 33.5816 217.6 33.2023 217.682 32.6874L217.725 32.4634L218.555 27.1958L218.608 26.9068C218.69 26.3901 219.134 26.0108 219.656 26.0108H220.316C224.587 26.0108 227.931 24.2766 228.908 19.2583C229.316 17.1619 229.105 15.4114 228.025 14.1803C227.682 13.7995 227.273 13.4842 226.818 13.25V13.25Z" fill="#636363"/>
<path d="M225.649 12.7842C225.292 12.681 224.929 12.6004 224.562 12.543C223.837 12.4316 223.105 12.3781 222.371 12.3831H215.731C215.208 12.3827 214.764 12.7632 214.684 13.2791L213.271 22.2265L213.23 22.4875C213.321 21.899 213.828 21.4648 214.424 21.4651H216.909C221.791 21.4651 225.614 19.4825 226.731 13.747C226.764 13.5772 226.792 13.4119 226.818 13.2502C226.523 13.0956 226.216 12.966 225.899 12.8627C225.816 12.8352 225.733 12.809 225.649 12.7842Z" fill="#393939"/>
<path d="M214.684 13.2821C214.763 12.7658 215.208 12.3853 215.73 12.387H222.371C223.158 12.387 223.892 12.4384 224.562 12.5468C225.016 12.6181 225.463 12.7247 225.9 12.8657C226.229 12.975 226.536 13.1041 226.818 13.2532C227.151 11.1333 226.816 9.68993 225.669 8.38296C224.406 6.94412 222.125 6.32812 219.207 6.32812H210.735C210.139 6.32812 209.63 6.76167 209.538 7.35148L206.009 29.7199C205.976 29.93 206.036 30.1442 206.174 30.3061C206.312 30.468 206.514 30.5614 206.727 30.5617H211.958L213.271 22.2294L214.684 13.2821Z" fill="#151515"/>
<rect opacity="0.01" x="202" y="0.328125" width="120" height="40" fill="white"/>
</svg>